<svg width="32" height="29" viewBox="0 0 32 29" fill="none" xmlns="http://www.w3.org/2000/svg">
<path d="M0.498008 8.83113V8.83108C0.497634 6.64559 1.37292 4.55192 2.92663 3.02107C4.48031 1.49025 6.58187 0.650782 8.75845 0.691238L8.75845 0.691313L8.76466 0.69128C11.3517 0.677492 13.8205 1.7785 15.5443 3.71519L15.7383 3.93317L15.9323 3.71519C17.656 1.7785 20.1248 0.677492 22.7119 0.69128V0.691354L22.7181 0.691238C24.8947 0.650782 26.9963 1.49025 28.5499 3.02107C30.1036 4.55192 30.9789 6.64559 30.9786 8.83108V8.83113C30.9786 12.8914 28.5681 16.4833 25.4075 19.7064C23.8306 21.3145 22.0769 22.8209 20.3624 24.2393C19.8667 24.6494 19.3736 25.0527 18.889 25.449C17.7699 26.3643 16.6959 27.2427 15.7392 28.0829C14.7456 27.2015 13.6249 26.2819 12.4577 25.3242C12.0169 24.9624 11.5693 24.5952 11.1195 24.2226C9.40538 22.8025 7.65128 21.298 6.07345 19.6927C2.91126 16.4756 0.498008 12.8943 0.498008 8.83113Z" fill="white" stroke="black" stroke-width="0.519453"/>
</svg>
